Ostrich_Walking_GRF_Data																		
inDegrees=yes
nColumns=19
nRows=106
DataType=double
version=3
OpenSimVersion=4.4.1-2023-07-13-710e13be5
endheader
time	ground_force_vx	ground_force_vy	ground_force_vz	ground_force_px	ground_force_py	ground_force_pz	1_ground_force_vx	1_ground_force_vy	1_ground_force_vz	1_ground_force_px	1_ground_force_py	1_ground_force_pz	ground_torque_x	ground_torque_y	ground_torque_z	1_ground_torque_x	1_ground_torque_y	1_ground_torque_z
-0.035	0	0	0	0	0	0	-203.3303	846.5902333	-8.637933332999999	1.028736782437942	0	-0.3137200873765998	0	0	0	0	-5.343414271	0
-0.03	0	0	0	0	0	0	-198.8696	843.8399833	-9.594933333	1.032936967870905	0	-0.3564067156012029	0	0	0	0	-5.533465565	0
-0.025	0	0	0	0	0	0	-194.4089	841.0897333	-10.55193333	1.036828543801159	0	-0.4007975995780915	0	0	0	0	-5.72351686	0
-0.02	0	0	0	0	0	0	-189.9482	838.3394833	-11.50893333	1.042809155488865	0	-0.4943065804175003	0	0	0	0	-5.913568154	0
-0.015	0	0	0	0	0	0	-185.4875	835.5892333	-12.46593333	1.045715836941322	0	-0.5431425402961771	0	0	0	0	-6.103619448	0
-0.01	0	0	0	0	0	0	-181.0268	832.8389833	-13.42293333	1.04827886727545	0	-0.5932313046994752	0	0	0	0	-6.293670743	0
-0.005	0	0	0	0	0	0	-176.5661	830.0887332999999	-14.37993333	1.051009220956006	0	-0.6983608217067871	0	0	0	0	-6.483722037	0
0	0	0	0	0	0	0	-172.0781	827.1454	-15.318	1.053038919069603	0	-0.751573581907249	0	0	0	0	-6.670751654	0
0.005	0	0	0	0	0	0	-167.6993	824.9743999999999	-16.3318	1.055634777916034	0	-0.7939804355559588	0	0	0	0	-6.869867981	0
0.01	0	0	0	0	0	0	-163.1567	821.6449	-17.232	1.054843525954492	0	-0.8596400310747295	0	0	0	0	-7.050854243	0
0.015	0	0	0	0	0	0	-158.473	817.2154	-17.9918	1.051251380384198	0	-0.7965617118042789	0	0	0	0	-7.212894035	0
0.02	0	0	0	0	0	0	-153.6891	811.8072	-18.579	1.043235976686514	0	-0.7910626189007215	0	0	0	0	-7.353126817	0
0.025	0	0	0	0	0	0	-148.839	805.5672	-18.9647	1.049306404355844	0	-0.8063590393764075	0	0	0	0	-7.462113193	0
0.03	0	0	0	0	0	0	-143.9684	798.6182	-19.1241	1.046808862109342	0	-0.7517141004218486	0	0	0	0	-7.527048044	0
0.035	0	0	0	0	0	0	-139.1183	791.0626999999999	-19.0374	1.051271932682754	0	-0.8325415667256375	0	0	0	0	-7.538425231	0
0.04	0	0	0	0	0	0	-134.3375	783.0024	-18.6944	1.051389698690419	0	-0.7973828613215368	0	0	0	0	-7.488502677	0
0.045	0	0	0	0	0	0	-129.7171	774.551	-18.1263	1.052834635487402	0	-0.8417150128205169	0	0	0	0	-7.372067315	0
0.05	0	0	0	0	0	0	-125.3512	765.8292	-17.4227	1.055229740365917	0	-0.8480389488576011	0	0	0	0	-7.196683225	0
0.055	0	0	0	0	0	0	-121.2931	757.0032	-16.7842	1.060178547482313	0	-0.7772590285827358	0	0	0	0	-6.994725956	0
0.06	0	0	0	0	0	0	-117.3807	748.2364	-16.3875	1.066852115194717	0	-0.8442374762695251	0	0	0	0	-6.809622644	0
0.065	0	0	0	0	0	0	-113.2799	739.5072	-16.2334	1.068529892945933	0	-0.8109786855994117	0	0	0	0	-6.66958068	0
0.07000000000000001	0	0	0	0	0	0	-109.0094	730.7977	-16.177	1.067509122776141	0	-0.8150911027735138	0	0	0	0	-6.570673593	0
0.075	0	0	0	0	0	0	-104.8144	722.149	-16.0797	1.079248215960695	0	-0.8318297128423612	0	0	0	0	-6.493421975	0
0.08	0	0	0	0	0	0	-100.7713	713.5272	-15.8846	1.081393008829222	0	-0.8330002180987272	0	0	0	0	-6.415226922	0
0.08500000000000001	0	0	0	0	0	0	-96.8603	704.8962	-15.571	1.079525205182895	0	-0.8619791979949806	0	0	0	0	-6.317019426	0
0.09	0	0	0	0	0	0	-93.06480000000001	696.2477	-15.1242	1.084525866206347	0	-0.8762955384406629	0	0	0	0	-6.185243322	0
0.095	0	0	0	0	0	0	-89.4041	687.5972	-14.5039	1.090943762045851	0	-0.8224558111683834	0	0	0	0	-6.015393148	0
0.1	0	0	0	0	0	0	-85.8896	678.9857	-13.6566	1.092101974813147	0	-0.8356189872705646	0	0	0	0	-5.810515266	0
0.105	0	0	0	0	0	0	-82.4803	670.4322	-12.5952	1.095597059878741	0	-0.9105078806543067	0	0	0	0	-5.574291013	0
0.11	0	0	0	0	0	0	-79.1446	661.9472	-11.3783	1.096636653609897	0	-0.8827109181418773	0	0	0	0	-5.312070179	0
0.115	0	0	0	0	0	0	-75.8824	653.5827	-10.0404	1.101665388009861	0	-0.8772251435995518	0	0	0	0	-5.030364253	0
0.12	0	0	0	0	0	0	-72.6977	645.4015000000001	-8.5791	1.103968744231131	0	-0.886870481931708	0	0	0	0	-4.734717089	0
0.125	0	0	0	0	0	0	-69.59269999999999	637.4515	-6.9853	1.098688374121556	0	-0.9286807804967072	0	0	0	0	-4.431314114	0
0.13	0	0	0	0	0	0	-66.5723	629.7646999999999	-5.2653	1.102190045514102	0	-0.850537221119363	0	0	0	0	-4.124738314	0
0.135	0	0	0	0	0	0	-63.6395	622.3758	-3.4379	1.104440607705873	0	-0.8655342729823953	0	0	0	0	-3.817032928	0
0.14	0	0	0	0	0	0	-60.7939	615.3329	-1.5252	1.104975410311672	0	-0.8982959149949397	0	0	0	0	-3.509786636	0
0.145	0	0	0	0	0	0	-58.0343	608.6668	0.452	1.105574780544034	0	-0.8712060060895008	0	0	0	0	-3.209574662	0
0.15	0	0	0	0	0	0	-55.3462	602.398	2.4622	1.107304845030461	0	-0.788947554657081	0	0	0	0	-2.917353355	0
0.155	0	0	0	0	0	0	-52.7163	596.5458	4.4584	1.112672928483498	0	-0.912390942513525	0	0	0	0	-2.639702338	0
0.16	0	0	0	0	0	0	-50.1338	591.1047	6.3903	1.112541120036024	0	-0.8844344655430609	0	0	0	0	-2.378062358	0
0.165	0	0	0	0	0	0	-47.5894	586.0544	8.209199999999999	1.116167250667696	0	-0.8889186175038976	0	0	0	0	-2.134448396	0
0.17	0	0	0	0	0	0	-45.0749	581.3617	9.879	1.118442760521199	0	-0.9701920758290643	0	0	0	0	-1.908773334	0
0.175	0	0	0	0	0	0	-42.5883	577.018	11.3871	1.118322228604298	0	-0.9215809155541382	0	0	0	0	-1.701486702	0
0.18	0	0	0	0	0	0	-40.1348	573.0349	12.7403	1.117854397274239	0	-0.9690467974573624	0	0	0	0	-1.514530773	0
0.185	0	0	0	0	0	0	-37.7196	569.4198	13.9634	1.12130366449496	0	-0.9359838488062622	0	0	0	0	-1.344047449	0
0.19	0	0	0	0	0	0	-35.3513	566.1585	15.0864	1.125209636210619	0	-0.9380290081998821	0	0	0	0	-1.182920433	0
0.195	0	0	0	0	0	0	-33.0354	563.2447	16.1124	1.12797316631955	0	-0.9628914842514973	0	0	0	0	-1.027114037	0
0.2	0	0	0	0	0	0	-30.7692	560.6797	17.0054	1.132071349976527	0	-0.9740465774474174	0	0	0	0	-0.87818599	0
0.205	0	0	0	0	0	0	-28.5433	558.4589	17.7103	1.135837467661005	0	-0.9637736646799135	0	0	0	0	-0.739079758	0
0.21	0	0	0	0	0	0	-26.3503	556.5743	18.211	1.137936944013521	0	-1.019986243390674	0	0	0	0	-0.614903603	0
0.215	0	0	0	0	0	0	-24.184	555.045	18.5563	1.137678996763912	0	-0.9135645467379376	0	0	0	0	-0.502506813	0
0.22	0	0	0	0	0	0	-22.0413	553.9382000000001	18.82	1.140368773055292	0	-0.9182048287316876	0	0	0	0	-0.399485756	0
0.225	0	0	0	0	0	0	-19.919	553.3073000000001	19.0491	1.14503440611635	0	-0.9769827818517994	0	0	0	0	-0.304063567	0
0.23	0	0	0	0	0	0	-17.8072	553.1573	19.2492	1.14943573396891	0	-0.9333865208856418	0	0	0	0	-0.212826453	0
0.235	0	0	0	0	0	0	-15.695	553.471	19.41	1.150344967914872	0	-0.9770252809524336	0	0	0	0	-0.122347499	0
0.24	0	0	0	0	0	0	-13.5753	554.2563	19.533	1.153798379111077	0	-0.9167574099486192	0	0	0	0	-0.0278853	0
0.245	0	0	0	0	0	0	-11.4533	555.5436999999999	19.631	1.156315374787903	0	-0.9245706362011946	0	0	0	0	0.072875853	0
0.25	0	0	0	0	0	0	-9.3483	557.333	19.706	1.157329350643626	0	-0.9760015385237097	0	0	0	0	0.181603919	0
0.255	0	0	0	0	0	0	-7.2643	559.6033	19.7593	1.163954070634624	0	-0.9565644818315497	0	0	0	0	0.296506603	0
0.26	0	0	0	0	0	0	-5.1851	562.3205	19.806	1.166926037381449	0	-0.9345530682283788	0	0	0	0	0.414183536	0
0.265	0	0	0	0	0	0	-3.0822	565.4532	19.8704	1.167492817051822	0	-0.9465830859441886	0	0	0	0	0.532573255	0
0.27	0	0	0	0	0	0	-0.9221	568.982	19.965	1.170699722781114	0	-0.9755199404955638	0	0	0	0	0.648345484	0
0.275	0	0	0	0	0	0	1.3157	572.9049	20.0873	1.179816069743067	0	-0.981031592017562	0	0	0	0	0.762884286	0
0.28	0	0	0	0	0	0	3.6382	577.2332	20.2254	1.182262170839811	0	-0.93625101571158	0	0	0	0	0.875311408	0
0.285	0	0	0	0	0	0	6.0469	581.9543	20.362	1.182070518401199	0	-1.004893885299575	0	0	0	0	0.98322454	0
0.29	0	0	0	0	0	0	8.5449	587.0385	20.4974	1.185358859211045	0	-1.053323640518258	0	0	0	0	1.085200661	0
0.295	0	0	0	0	0	0	11.141	592.4693	20.6532	1.186965672849372	0	-0.9307259551025223	0	0	0	0	1.182462186	0
0.3	0	0	0	0	0	0	13.8327	598.2388	20.8471	1.18969582593363	0	-0.9669338252839238	0	0	0	0	1.278209	0
0.305	0	0	0	0	0	0	16.5988	604.3133	21.085	1.196124496553283	0	-1.0210411925776	0	0	0	0	1.376036227	0
0.31	0	0	0	0	0	0	19.4054	610.6359	21.3402	1.201569362164909	0	-0.9618633176663003	0	0	0	0	1.478447959	0
0.315	0	0	0	0	0	0	22.2135	617.1482	21.5731	1.204932052851602	0	-0.968542479571902	0	0	0	0	1.583675305	0
0.32	0	0	0	0	0	0	24.9968	623.793	21.763	1.205720638772293	0	-0.9578996531043694	0	0	0	0	1.688940856	0
0.325	0	0	0	0	0	0	27.7585	630.528	21.9223	1.204167253166951	0	-0.9715114225510606	0	0	0	0	1.793096634	0
0.33	0	0	0	0	0	0	30.5122	637.308	22.0914	1.211232404673843	0	-0.9571378127031197	0	0	0	0	1.895102562	0
0.335	0	0	0	0	0	0	33.2783	644.0837	22.2933	1.216358093409549	0	-0.9727148119088317	0	0	0	0	1.99325895	0
0.34	0	0	0	0	0	0	36.0734	650.8124	22.515	1.219009760274526	0	-0.9869481320227834	0	0	0	0	2.085335812	0
0.345	0	0	0	0	0	0	38.9037	657.4627	22.7282	1.224558659293238	0	-0.9642663929398488	0	0	0	0	2.171228726	0
0.35	0	0	0	0	0	0	41.773	664.0163	22.9251	1.22444547217399	0	-0.9734587558435567	0	0	0	0	2.248389753	0
0.355	0	0	0	0	0	0	44.6981	670.4945	23.1192	1.228718835318696	0	-0.9404541513514982	0	0	0	0	2.314085174	0
0.36	0	0	0	0	0	0	47.6919	676.9229	23.3331	1.234393048062306	0	-0.9899592835921788	0	0	0	0	2.36922642	0
0.365	0	0	0	0	0	0	50.7577	683.3125	23.582	1.238310616691798	0	-1.079881351270399	0	0	0	0	2.416012534	0
0.37	0	0	0	0	0	0	53.8977	689.6647	23.8733	1.238369761621167	0	-0.9520223658867017	0	0	0	0	2.45681932	0
0.375	0	0	0	0	0	0	57.1116	695.9878	24.2113	1.242801295574457	0	-1.002648240597187	0	0	0	0	2.492855292	0
0.38	0	0	0	0	0	0	60.3934	702.2727	24.6022	1.245771020479349	0	-1.006918055995328	0	0	0	0	2.526125037	0
0.385	0	0	0	0	0	0	63.7508	708.477	25.0433	1.247123985742276	0	-0.9196108449009568	0	0	0	0	2.55677174	0
0.39	0	0	0	0	0	0	67.1788	714.5332	25.5083	1.247358842674904	0	-0.9957279085764316	0	0	0	0	2.583577118	0
0.395	0	0	0	0	0	0	70.6486	720.3852000000001	25.9703	1.253424450726462	0	-0.9862941143219274	0	0	0	0	2.608110766	0
0.4	0	0	0	0	0	0	74.1237	725.9438	26.4222	1.255482028893216	0	-0.9758194095362014	0	0	0	0	2.630845795	0
0.405	0	0	0	0	0	0	77.6159	731.0812	26.8582	1.252127282996065	0	-0.9783355436218896	0	0	0	0	2.648119653	0
0.41	0	0	0	0	0	0	81.1198	735.6615	27.2842	1.255402839822337	0	-0.9940002964127159	0	0	0	0	2.659049739	0
0.415	0	0	0	0	0	0	84.5834	739.6159	27.7082	1.25895193015624	0	-0.973977972121149	0	0	0	0	2.664248287	0
0.42	0	0	0	0	0	0	87.9464	742.8757000000001	28.1324	1.259620009508366	0	-0.9333006748696099	0	0	0	0	2.663291548	0
0.425	0	0	0	0	0	0	91.2011	745.3067	28.5481	1.261309040807864	0	-0.9478322429928324	0	0	0	0	2.655811257	0
0.43	0	0	0	0	0	0	94.3707	746.771	28.9354	1.26058069145488	0	-0.9682858145388341	0	0	0	0	2.638434596	0
0.435	0	0	0	0	0	0	97.4584	747.1765	29.27	1.262176837933252	0	-0.9685277665289845	0	0	0	0	2.610087305	0
0.44	0	0	0	0	0	0	100.4576	746.4985	29.5284	1.263827750708137	0	-0.918587436700935	0	0	0	0	2.57034296	0
0.445	0	0	0	0	0	0	103.3648	744.6949	29.6902	1.264674219109188	0	-0.9721358235665584	0	0	0	0	2.518473643	0
0.45	0.2184	-2.9629	1.0758	0	0	0	106.1738	741.7338	29.752	1.270305003814756	0	-0.9818591670842347	0	0.095075532	0	0	2.452732801	0
0.455	0.0038	-1.0317	0.5945	0	0	0	108.8263	737.5982	29.7283	1.269722156877265	0	-0.878161047723506	0	0.185089074	0	0	2.371964819	0
0.46	-0.4851	3.1453	-0.4821	1.806542659832718	0	-0.7507112320131433	111.2678	732.2948	29.6551	1.268999214295511	0	-0.8931534218049286	0	-0.00658237	0	0	2.273176195	0
0.465	-1.3283	10.1552	-2.3272	1.844180668942154	0	-0.8330900690260828	113.4731	725.7945	29.5632	1.272528597924993	0	-0.9194504511569012	0	-0.016312189	0	0	2.15885921	0
0.47	-2.5102	19.7871	-4.9222	1.836974076545036	0	-0.8374656371060933	115.485	718.0267	29.4971	1.27748553825156	0	-0.9776665156472533	0	-0.08957277299999999	0	0	2.039562888	0
0.475	-3.9132	31.2104	-7.9702	1.834197611323442	0	-0.8483119455096478	117.3098	708.9345	29.473	1.280811952386328	0	-0.9181322974953248	0	-0.208107227	0	0	1.93028123	0
0.48	-5.4751	44.1369	-11.1271	1.829554127898479	0	-0.8530542917498327	118.8797	698.5139	29.4424	1.282305352417364	0	-0.924748434782192	0	-0.34583225	0	0	1.833647752	0
0.485	-7.297	58.7159	-14.3164	1.828679771363211	0	-0.8584215439989715	120.0117	686.8347	29.26	1.283406598848455	0	-0.8854779554467616	0	-0.451856957	0	0	1.736129142	0
0.49	-9.766400000000001	75.19370000000001	-17.6501	1.829382806386253	0	-0.8616934237919532	120.5453	673.9983999999999	28.7361	1.28453724101854	0	-0.9225958790087108	0	-0.479352249	0	0	1.616801878	0
